<?xml version="1.0" standalone="no"?><!DOCTYPE svg PUBLIC "-//W3C//DTD SVG 1.1//EN" "http://www.w3.org/Graphics/SVG/1.1/DTD/svg11.dtd"><svg t="1706000995582" class="icon" viewBox="0 0 1024 1024" version="1.1" xmlns="http://www.w3.org/2000/svg" p-id="25095" xmlns:xlink="http://www.w3.org/1999/xlink" width="200" height="200"><path d="M512 1024C229.23 1024 0 794.77 0 512S229.23 0 512 0s512 229.23 512 512-229.23 512-512 512z m-51.72-429.983l-129.3-129.3c-14.281-14.282-37.437-14.282-51.72 0-14.281 14.282-14.281 37.438 0 51.72l155.16 155.16c7.141 7.14 16.5 10.71 25.86 10.71s18.72-3.57 25.86-10.71l258.6-258.6c14.281-14.282 14.281-37.438 0-51.72-14.283-14.282-37.439-14.282-51.72 0l-232.74 232.74z" fill="#34BF5E" p-id="25096"></path></svg>